solid Default
  facet normal -1.000000e+00 -1.367143e-14 8.371335e-31
    outer loop
      vertex -6.250000e+01 1.450001e+00 1.224647e-16
      vertex -6.250000e+01 -2.345000e+01 1.647150e-15
      vertex -6.250000e+01 3.450001e+00 2.000000e+00
    endloop
  endfacet
  facet normal -1.000000e+00 -1.367143e-14 8.371335e-31
    outer loop
      vertex -6.250000e+01 3.450001e+00 2.000000e+00
      vertex -6.250000e+01 -2.345000e+01 1.647150e-15
      vertex -6.250000e+01 -2.145000e+01 2.000000e+00
    endloop
  endfacet
  facet normal 1.000000e+00 0.000000e+00 0.000000e+00
    outer loop
      vertex 4.250000e+01 3.450001e+00 2.000000e+00
      vertex 4.250000e+01 -2.145000e+01 2.000000e+00
      vertex 4.250000e+01 1.450001e+00 1.224647e-16
    endloop
  endfacet
  facet normal 1.000000e+00 0.000000e+00 0.000000e+00
    outer loop
      vertex 4.250000e+01 1.450001e+00 1.224647e-16
      vertex 4.250000e+01 -2.145000e+01 2.000000e+00
      vertex 4.250000e+01 -2.345000e+01 1.647150e-15
    endloop
  endfacet
  facet normal 0.000000e+00 6.123234e-17 1.000000e+00
    outer loop
      vertex 4.250000e+01 -2.145000e+01 2.000000e+00
      vertex 4.250000e+01 3.450001e+00 2.000000e+00
      vertex -6.250000e+01 -2.145000e+01 2.000000e+00
    endloop
  endfacet
  facet normal 0.000000e+00 6.123234e-17 1.000000e+00
    outer loop
      vertex -6.250000e+01 -2.145000e+01 2.000000e+00
      vertex 4.250000e+01 3.450001e+00 2.000000e+00
      vertex -6.250000e+01 3.450001e+00 2.000000e+00
    endloop
  endfacet
  facet normal 0.000000e+00 -6.123234e-17 -1.000000e+00
    outer loop
      vertex 4.250000e+01 1.450001e+00 1.224647e-16
      vertex 4.250000e+01 -2.345000e+01 1.647150e-15
      vertex -6.250000e+01 1.450001e+00 1.224647e-16
    endloop
  endfacet
  facet normal 0.000000e+00 -6.123234e-17 -1.000000e+00
    outer loop
      vertex -6.250000e+01 1.450001e+00 1.224647e-16
      vertex 4.250000e+01 -2.345000e+01 1.647150e-15
      vertex -6.250000e+01 -2.345000e+01 1.647150e-15
    endloop
  endfacet
  facet normal -7.009341e-17 -7.071068e-01 7.071068e-01
    outer loop
      vertex 4.250000e+01 -2.345000e+01 7.797883e-16
      vertex 4.250000e+01 -2.145000e+01 2.000000e+00
      vertex -6.250000e+01 -2.345000e+01 7.797883e-16
    endloop
  endfacet
  facet normal -7.009341e-17 -7.071068e-01 7.071068e-01
    outer loop
      vertex -6.250000e+01 -2.345000e+01 7.797883e-16
      vertex 4.250000e+01 -2.145000e+01 2.000000e+00
      vertex -6.250000e+01 -2.145000e+01 2.000000e+00
    endloop
  endfacet
  facet normal -7.009341e-17 7.071068e-01 -7.071068e-01
    outer loop
      vertex -6.250000e+01 1.450001e+00 -7.448970e-16
      vertex -6.250000e+01 3.450001e+00 2.000000e+00
      vertex 4.250000e+01 1.450001e+00 -7.448970e-16
    endloop
  endfacet
  facet normal -7.009341e-17 7.071068e-01 -7.071068e-01
    outer loop
      vertex 4.250000e+01 1.450001e+00 -7.448970e-16
      vertex -6.250000e+01 3.450001e+00 2.000000e+00
      vertex 4.250000e+01 3.450001e+00 2.000000e+00
    endloop
  endfacet
endsolid Default
